<svg width="64" height="42" viewBox="0 0 64 42" fill="none" xmlns="http://www.w3.org/2000/svg">
<path d="M51 18C51 16.8954 50.1046 16 49 16H16C14.8954 16 14 16.8954 14 18V39C14 40.1046 14.8954 41 16 41H49C50.1046 41 51 40.1046 51 39V18Z" fill="#93BEFF"/>
<path d="M51 21H14V25H51V21Z" fill="#003CBE"/>
<path d="M47 35H42C41.45 35 41 35.45 41 36V37C41 37.55 41.45 38 42 38H47C47.55 38 48 37.55 48 37V36C48 35.45 47.55 35 47 35Z" fill="white"/>
<path d="M24 9H10C8.34315 9 7 10.3431 7 12V26C7 27.6569 8.34315 29 10 29H24C25.6569 29 27 27.6569 27 26V12C27 10.3431 25.6569 9 24 9Z" fill="#09A459"/>
<path d="M21.29 16.7597C21.29 16.7597 19.63 18.7197 21.29 21.0397M17.89 15.1497C17.89 15.1497 14.98 18.5897 17.89 22.6497M14.3 13.6797C14.3 13.6797 10.25 18.4597 14.3 24.1097" stroke="white" stroke-width="2" stroke-miterlimit="10"/>
</svg>
