<svg width="64" height="42" viewBox="0 0 64 42" fill="none" xmlns="http://www.w3.org/2000/svg">
<path d="M21 3L18 4V9H13.8559C13.3632 9 12.9439 9.35885 12.8679 9.84562L8.18037 39.8456C8.08561 40.4521 8.55455 41 9.16838 41H40.8316C41.4454 41 41.9144 40.4521 41.8196 39.8456L37.1321 9.84562C37.0561 9.35885 36.6368 9 36.1441 9H32V4L29 3V9H21V3Z" fill="#003CBE"/>
<path d="M18 4L21 1H29L32 4H18Z" fill="#93BEFF"/>
<path d="M57 18C57.5523 18 58 18.4477 58 19V21C58 21.5523 57.5523 22 57 22H53.4L52.59 27L51.5 33.75L51.1068 36.161C51.0279 36.6447 50.61 37 50.1199 37H33.926C33.4035 37 32.969 36.5977 32.9289 36.0768L32.23 27L32.0825 25.0764C32.038 24.4957 32.4972 24 33.0796 24H49.02L49.99 18H57Z" fill="#7EA7FF"/>
<path d="M37 37C35.9 37 35 37.9 35 39C35 40.1 35.9 41 37 41C38.1 41 39 40.1 39 39C39 37.9 38.1 37 37 37Z" fill="#7EA7FF"/>
<path d="M47 37C48.1 37 49 37.9 49 39C49 40.1 48.1 41 47 41C45.9 41 45 40.1 45 39C45 37.9 45.9 37 47 37Z" fill="#7EA7FF"/>
<path d="M57 18C57.5523 18 58 18.4477 58 19V21C58 21.5523 57.5523 22 57 22H53.4L52.59 27H32.23L32.0825 25.0764C32.038 24.4957 32.4972 24 33.0796 24H49.02L49.99 18H57Z" fill="#09A459"/>
</svg>
