<svg width="64" height="42" viewBox="0 0 64 42" fill="none" xmlns="http://www.w3.org/2000/svg">
<path d="M50 26C50 25.4477 49.5523 25 49 25H30C29.4477 25 29 25.4477 29 26V40C29 40.5523 29.4477 41 30 41H49C49.5523 41 50 40.5523 50 40V35.7273L54.5211 38.1934C55.1875 38.5568 56 38.0745 56 37.3155V28.6845C56 27.9255 55.1875 27.4432 54.5211 27.8066L50 30.2727V26Z" fill="#93BEFF"/>
<path d="M32 3H15C13.3431 3 12 4.34315 12 6V38C12 39.6569 13.3431 41 15 41H32C33.6569 41 35 39.6569 35 38V6C35 4.34315 33.6569 3 32 3Z" fill="#003CBE"/>
<path d="M27 6H20V7H27V6Z" fill="white"/>
<path d="M31 24.5C31 25.95 30.59 27.31 29.86 28.45C29.57 28.94 29.21 29.39 28.8 29.8C27.44 31.16 25.57 32 23.5 32C20.81 32 18.45 30.58 17.14 28.45C16.41 27.31 16 25.95 16 24.5C16 22.43 16.84 20.56 18.2 19.2C19.56 17.84 21.43 17 23.5 17C25.57 17 27.44 17.84 28.8 19.2C30.16 20.56 31 22.43 31 24.5Z" fill="#09A459"/>
<path d="M23.5006 20C22.8106 20 22.1806 20.28 21.7306 20.73C21.2806 21.18 21.0006 21.81 21.0006 22.5C21.0006 23.19 21.2806 23.82 21.7306 24.27C22.1806 24.72 22.8106 25 23.5006 25C24.1906 25 24.8206 24.72 25.2706 24.27C25.7206 23.82 26.0006 23.19 26.0006 22.5C26.0006 21.12 24.8806 20 23.5006 20ZM23.5006 26C21.0606 26 18.8206 26.92 17.1406 28.45C18.4506 30.58 20.8106 32 23.5006 32C25.5706 32 27.4406 31.16 28.8006 29.8C29.2106 29.39 29.5706 28.94 29.8606 28.45C28.1806 26.92 25.9406 26 23.5006 26Z" fill="white"/>
</svg>
