<svg width="64" height="42" viewBox="0 0 64 42" fill="none" xmlns="http://www.w3.org/2000/svg">
<path d="M50 9H10C8.34315 9 7 10.3431 7 12V37C7 38.6569 8.34315 40 10 40H50C51.6569 40 53 38.6569 53 37V12C53 10.3431 51.6569 9 50 9Z" fill="#003CBE"/>
<path d="M12 13C12 12.4477 11.5523 12 11 12C10.4477 12 10 12.4477 10 13C10 13.5523 10.4477 14 11 14C11.5523 14 12 13.5523 12 13Z" fill="#09A459"/>
<path d="M16 13C16 12.4477 15.5523 12 15 12C14.4477 12 14 12.4477 14 13C14 13.5523 14.4477 14 15 14C15.5523 14 16 13.5523 16 13Z" fill="#09A459"/>
<path d="M20 13C20 12.4477 19.5523 12 19 12C18.4477 12 18 12.4477 18 13C18 13.5523 18.4477 14 19 14C19.5523 14 20 13.5523 20 13Z" fill="#09A459"/>
<path d="M46.3954 19.4376L44.5499 21.2831C44.1594 21.6737 44.1594 22.3068 44.5499 22.6973L58.6354 36.7829C59.026 37.1734 59.6591 37.1734 60.0497 36.7829L61.8952 34.9374C62.2857 34.5468 62.2857 33.9137 61.8952 33.5231L47.8096 19.4376C47.4191 19.0471 46.786 19.0471 46.3954 19.4376Z" fill="#7EA7FF"/>
<path d="M43.0296 29.1105C40.0396 29.1105 37.2296 27.9505 35.1196 25.8305C30.7596 21.4705 30.7596 14.3705 35.1196 10.0105C37.2296 7.90047 40.0396 6.73047 43.0296 6.73047C46.0196 6.73047 48.8296 7.89047 50.9396 10.0105C55.2996 14.3705 55.2996 21.4705 50.9396 25.8305C48.8296 27.9405 46.0196 29.1105 43.0296 29.1105Z" fill="white"/>
<path d="M43.0298 8.23047C45.6198 8.23047 48.0498 9.24047 49.8798 11.0705C53.6598 14.8505 53.6598 20.9905 49.8798 24.7705C48.0498 26.6005 45.6198 27.6105 43.0298 27.6105C40.4398 27.6105 38.0098 26.6005 36.1798 24.7705C32.3998 20.9905 32.3998 14.8505 36.1798 11.0705C38.0098 9.24047 40.4398 8.23047 43.0298 8.23047ZM43.0298 5.23047C39.7798 5.23047 36.5398 6.47047 34.0598 8.95047C29.0998 13.9105 29.0998 21.9405 34.0598 26.8905C36.5398 29.3705 39.7898 30.6105 43.0298 30.6105C46.2698 30.6105 49.5198 29.3705 51.9998 26.8905C56.9598 21.9305 56.9598 13.9005 51.9998 8.95047C49.5198 6.47047 46.2698 5.23047 43.0298 5.23047Z" fill="#7EA7FF"/>
</svg>
