<svg width="64" height="42" viewBox="0 0 64 42" fill="none" xmlns="http://www.w3.org/2000/svg">
<path d="M54 19L32 8L10 19L32 30L54 19Z" fill="#09A459"/>
<path d="M46 4H18C17.4477 4 17 4.44772 17 5V29C17 29.5523 17.4477 30 18 30H46C46.5523 30 47 29.5523 47 29V5C47 4.44772 46.5523 4 46 4Z" fill="#93BEFF"/>
<path d="M10 19V40C10 40.5523 10.4477 41 11 41H53C53.5523 41 54 40.5523 54 40V19L32 30L10 19Z" fill="#003CBE"/>
<path fill-rule="evenodd" clip-rule="evenodd" d="M31.7359 17.7251C32.42 17.7251 33.2121 17.041 33.2121 15.8768C33.2121 14.7127 32.42 14.0286 31.7359 14.0286C31.0518 14.0286 30.2597 14.7127 30.2597 15.8768C30.2597 17.041 31.0518 17.7251 31.7359 17.7251ZM31.7359 18.8293C33.1641 18.8293 34.3283 17.5091 34.3283 15.8648C34.3283 14.2206 33.1641 12.9004 31.7359 12.9004C30.3077 12.9004 29.1436 14.2206 29.1436 15.8648C29.1436 17.5091 30.3077 18.8293 31.7359 18.8293Z" fill="#003CBE"/>
<path fill-rule="evenodd" clip-rule="evenodd" d="M25.9994 16.0685C25.9634 12.684 28.4118 9.76758 31.7363 9.76758C35.3608 9.76758 37.3171 12.1199 37.8451 14.4483C38.1092 15.6004 38.0372 16.7886 37.6171 17.7247C37.1971 18.6729 36.3929 19.381 35.2408 19.381C34.5447 19.381 34.1606 18.8169 33.9686 18.3368C33.7646 17.8328 33.6685 17.1847 33.6205 16.5246C33.5245 15.2044 33.6445 13.6802 33.7646 12.816L34.8567 12.984C34.7367 13.7882 34.6287 15.2284 34.7247 16.4406C34.7727 17.0526 34.8567 17.5687 35.0007 17.9168C35.0727 18.0848 35.1328 18.1808 35.1808 18.2288C35.2168 18.2648 35.2288 18.2648 35.2408 18.2648C35.8529 18.2648 36.3089 17.9168 36.609 17.2687C36.909 16.5966 36.981 15.6604 36.765 14.6883C36.3329 12.768 34.7607 10.8717 31.7363 10.8717C29.1439 10.8717 27.0796 13.1641 27.1156 16.0445C27.1276 17.4967 27.7517 18.8169 28.8198 19.669C29.876 20.5212 31.4002 20.9412 33.2845 20.5092L33.5245 21.5893C31.3402 22.0814 29.4559 21.6133 28.1237 20.5332C26.7915 19.465 26.0234 17.8208 26.0114 16.0565L25.9994 16.0685Z" fill="#003CBE"/>
</svg>
