<svg width="64" height="42" viewBox="0 0 64 42" fill="none" xmlns="http://www.w3.org/2000/svg">
<g clip-path="url(#clip0_2299_14722)">
<path d="M25.2459 3.73659L11.3974 5.79077C10.8511 5.87181 10.4739 6.38037 10.5549 6.92668L15.5437 40.5587C15.6247 41.105 16.1333 41.4822 16.6796 41.4011L42.3982 37.5862C42.9445 37.5052 43.3217 36.9966 43.2406 36.4503L40.0126 14.6884C38.9592 7.58643 32.3479 2.68313 25.2459 3.73659Z" fill="#93BEFF"/>
<path d="M16.5858 4.77149C16.5561 4.22001 16.9792 3.74891 17.5307 3.71926L43.7487 2.30987C44.3003 2.28022 44.7714 2.70339 44.801 3.25497L46.276 30.8107C46.2902 31.0754 46.1987 31.3349 46.0217 31.5321L38.6412 39.755C38.4641 39.9524 38.2157 40.0713 37.9509 40.0856L19.539 41.0786C18.9875 41.1084 18.5163 40.6853 18.4866 40.1337L16.5858 4.77149Z" fill="#09A459"/>
<path d="M50 4H24C23.4477 4 23 4.44771 23 5V40C23 40.5523 23.4477 41 24 41H50C50.5523 41 51 40.5523 51 40V5C51 4.44772 50.5523 4 50 4Z" fill="#003CBE"/>
<path d="M48 8H26V18H48V8Z" fill="#93BEFF"/>
<path d="M35 22H28V24H35V22Z" fill="#93BEFF"/>
<path d="M46 22H39V24H46V22Z" fill="#93BEFF"/>
<path d="M35 27H28V29H35V27Z" fill="white"/>
<path d="M46 27H39V29H46V27Z" fill="white"/>
<path d="M35 32H28V34H35V32Z" fill="#93BEFF"/>
<path d="M46 32H39V34H46V32Z" fill="#93BEFF"/>
</g>
<defs>
<clipPath id="clip0_2299_14722">
<rect width="64" height="42" fill="white"/>
</clipPath>
</defs>
</svg>
