<svg xmlns="http://www.w3.org/2000/svg" id="Warstwa_2" viewBox="0 0 1474.32 1188.74"><defs><style>.cls-1,.cls-2,.cls-3,.cls-4,.cls-5{fill-rule:evenodd;}.cls-1,.cls-2,.cls-6{fill:#fff;}.cls-1,.cls-7,.cls-4,.cls-8,.cls-5,.cls-6{stroke-width:0px;}.cls-2{stroke:#1d1d1b;stroke-miterlimit:10;stroke-width:.1px;}.cls-7,.cls-4{fill:#010101;}.cls-3{fill:none;stroke:#000;stroke-linejoin:round;stroke-width:23.95px;}.cls-8,.cls-5{fill:#f8ac31;}</style></defs><g id="Warstwa_1-2"><path class="cls-2" d="M1474.24,590.92l-138.57-4.73,11.05-63.75-13.88-.56c-.29-.01-26.71-1.09-68.18-2.69v-186.03c0-25.54-13.75-49.31-35.88-62.05L774.45,9.59C763.61,3.35,751.26.05,738.74.05s-24.87,3.3-35.71,9.54L248.69,271.11c-22.13,12.74-35.88,36.51-35.88,62.05v185.96c-41.42,1.64-67.91,2.74-68.2,2.75l-13.86.58,10.53,60.7L.08,587.98l70.72,132.27L6.04,852.05l185.65-6.35-11.21-64.61,5.82-.23c7.89-.32,16.77-.67,26.51-1.06v75.86c0,25.54,13.75,49.31,35.88,62.05l454.33,261.45c10.85,6.24,23.19,9.54,35.71,9.54s24.86-3.3,35.71-9.54l454.33-261.45c22.13-12.74,35.88-36.51,35.88-62.05v-75.79c9.75.38,18.63.72,26.52,1.03l4.28.17-11.72,67.61,184.55,6.31-64.77-131.79,70.73-132.27Z"></path><path class="cls-5" d="M1332.35,534.04s-31.18-1.27-79.87-3.14v-197.75c0-21.25-11.35-40.89-29.77-51.49L768.38,20.15c-18.35-10.56-40.93-10.56-59.28,0L254.77,281.66c-18.42,10.6-29.77,30.24-29.77,51.49v197.67c-48.61,1.91-79.87,3.21-79.87,3.21l40.69,234.64c11.19-.45,24.38-.97,39.17-1.56v88.52c0,21.26,11.36,40.89,29.78,51.5l454.33,261.45c18.35,10.56,40.92,10.56,59.27,0l454.33-261.45c18.42-10.6,29.78-30.24,29.78-51.5v-88.45c14.8.57,27.99,1.08,39.17,1.52l40.7-234.68Z"></path><path class="cls-5" d="M709.11,1168.6l-454.33-261.45c-18.42-10.6-29.78-30.24-29.78-51.5V333.16c0-21.25,11.35-40.89,29.77-51.49L709.1,20.15c18.35-10.56,40.93-10.56,59.28,0l454.33,261.52c18.42,10.6,29.77,30.24,29.77,51.49v522.49c0,21.26-11.36,40.89-29.78,51.5l-454.33,261.45c-18.35,10.56-40.92,10.56-59.27,0Z"></path><path class="cls-1" d="M1221.04,599.25v-252.53c0-19.96-10.66-38.39-27.96-48.34L766.56,52.93c-17.22-9.91-38.42-9.91-55.64,0l-426.52,245.45c-17.3,9.95-27.96,28.39-27.96,48.34v252.53h964.6Z"></path><path class="cls-1" d="M256.44,688.81v145.12c0,19.96,10.66,38.39,27.96,48.34l426.52,245.45c17.22,9.91,38.42,9.91,55.64,0l426.52-245.45c17.3-9.95,27.96-28.39,27.96-48.34v-145.12H256.44Z"></path><path class="cls-3" d="M710.88,1134.14l-427.07-245.76c-17.32-9.97-27.99-28.43-27.99-48.41v-491.14c0-19.98,10.67-38.44,27.99-48.4L710.88,54.6c17.25-9.93,38.47-9.93,55.72,0l427.07,245.82c17.32,9.97,27.99,28.42,27.99,48.4v491.14c0,19.98-10.67,38.44-27.99,48.41l-427.07,245.76c-17.24,9.92-38.47,9.92-55.71,0Z"></path><polygon class="cls-8" points="177.3 834 135.94 595.52 20.04 599.49 84.49 720.02 25.93 839.18 177.3 834"></polygon><polygon class="cls-8" points="1454.28 602.42 1339.48 598.5 1298.12 836.98 1448.39 842.12 1389.83 722.96 1454.28 602.42"></polygon><path class="cls-8" d="M731.42,752.01c122.73,0,446.01,12.23,560.24,16.71l40.7-234.68s-450.71-18.33-600.94-18.33-586.29,18.33-586.29,18.33l40.69,234.64c112.3-4.51,426.18-16.67,545.6-16.67Z"></path><path class="cls-7" d="M368.92,845.08h-18.27l-3.49,8.43h-9.33l17.54-39.36h9l17.6,39.36h-9.56l-3.49-8.43ZM366.05,838.16l-6.24-15.07-6.24,15.07h12.48Z"></path><path class="cls-7" d="M388.88,814.15h17.88c4.27,0,8.05.82,11.33,2.45,3.28,1.63,5.83,3.93,7.65,6.89,1.82,2.96,2.73,6.41,2.73,10.35s-.91,7.39-2.73,10.35c-1.82,2.96-4.37,5.26-7.65,6.89-3.28,1.63-7.06,2.45-11.33,2.45h-17.88v-39.36ZM406.31,846.03c3.94,0,7.08-1.1,9.42-3.29,2.34-2.19,3.51-5.16,3.51-8.91s-1.17-6.72-3.51-8.91c-2.34-2.19-5.48-3.29-9.42-3.29h-8.32v24.4h8.32Z"></path><path class="cls-7" d="M474.69,814.15l-17.04,39.36h-9l-16.98-39.36h9.84l11.98,28.12,12.15-28.12h9.05Z"></path><path class="cls-7" d="M505.39,845.08h-18.27l-3.49,8.43h-9.33l17.54-39.36h9l17.6,39.36h-9.56l-3.49-8.43ZM502.52,838.16l-6.24-15.07-6.24,15.07h12.48Z"></path><path class="cls-7" d="M561.45,814.15v39.36h-7.48l-19.62-23.9v23.9h-9v-39.36h7.53l19.57,23.9v-23.9h9Z"></path><path class="cls-7" d="M581.55,851.57c-3.24-1.74-5.79-4.16-7.65-7.25-1.86-3.09-2.78-6.59-2.78-10.49s.93-7.39,2.78-10.49c1.86-3.09,4.4-5.51,7.65-7.25,3.24-1.74,6.89-2.61,10.94-2.61,3.41,0,6.49.6,9.25,1.8,2.76,1.2,5.07,2.92,6.94,5.17l-5.85,5.4c-2.66-3.07-5.96-4.61-9.9-4.61-2.44,0-4.61.53-6.52,1.6-1.91,1.07-3.4,2.56-4.47,4.47-1.07,1.91-1.6,4.09-1.6,6.52s.53,4.61,1.6,6.52c1.07,1.91,2.56,3.4,4.47,4.47,1.91,1.07,4.09,1.6,6.52,1.6,3.94,0,7.23-1.56,9.9-4.67l5.85,5.4c-1.87,2.29-4.2,4.03-6.97,5.23-2.77,1.2-5.87,1.8-9.28,1.8-4.01,0-7.64-.87-10.88-2.61Z"></path><path class="cls-7" d="M648.1,846.2v7.31h-30.48v-39.36h29.75v7.31h-20.69v8.55h18.27v7.09h-18.27v9.11h21.42Z"></path><path class="cls-7" d="M658.16,814.15h17.88c4.27,0,8.05.82,11.33,2.45,3.28,1.63,5.83,3.93,7.65,6.89,1.82,2.96,2.73,6.41,2.73,10.35s-.91,7.39-2.73,10.35c-1.82,2.96-4.37,5.26-7.65,6.89-3.28,1.63-7.06,2.45-11.33,2.45h-17.88v-39.36ZM675.59,846.03c3.94,0,7.08-1.1,9.42-3.29,2.34-2.19,3.51-5.16,3.51-8.91s-1.17-6.72-3.51-8.91c-2.34-2.19-5.48-3.29-9.42-3.29h-8.32v24.4h8.32Z"></path><path class="cls-7" d="M726.14,814.15h9.11v39.36h-9.11v-39.36Z"></path><path class="cls-7" d="M783.5,814.15v39.36h-7.48l-19.62-23.9v23.9h-9v-39.36h7.53l19.57,23.9v-23.9h9Z"></path><path class="cls-7" d="M794.46,830.06h15.91v7.03h-15.91v-7.03Z"></path><path class="cls-7" d="M828.43,821.57h-12.6v-7.42h34.3v7.42h-12.6v31.94h-9.11v-31.94Z"></path><path class="cls-7" d="M893.93,814.15v39.36h-9.11v-16.14h-17.88v16.14h-9.11v-39.36h9.11v15.52h17.88v-15.52h9.11Z"></path><path class="cls-7" d="M936.55,846.2v7.31h-30.48v-39.36h29.75v7.31h-20.69v8.55h18.27v7.09h-18.27v9.11h21.42Z"></path><path class="cls-7" d="M945.44,830.06h15.91v7.03h-15.91v-7.03Z"></path><path class="cls-7" d="M1029.16,814.15l-12.88,39.36h-9.78l-8.66-26.65-8.94,26.65h-9.73l-12.93-39.36h9.45l8.88,27.67,9.28-27.67h8.43l9,27.89,9.17-27.89h8.72Z"></path><path class="cls-7" d="M1037.04,814.15h9.11v39.36h-9.11v-39.36Z"></path><path class="cls-7" d="M1058.29,814.15h9.11v31.94h19.74v7.42h-28.85v-39.36Z"></path><path class="cls-7" d="M1095.06,814.15h17.88c4.27,0,8.05.82,11.33,2.45,3.28,1.63,5.83,3.93,7.65,6.89,1.82,2.96,2.73,6.41,2.73,10.35s-.91,7.39-2.73,10.35c-1.82,2.96-4.37,5.26-7.65,6.89-3.28,1.63-7.06,2.45-11.33,2.45h-17.88v-39.36ZM1112.49,846.03c3.94,0,7.08-1.1,9.42-3.29,2.34-2.19,3.51-5.16,3.51-8.91s-1.17-6.72-3.51-8.91c-2.34-2.19-5.48-3.29-9.42-3.29h-8.32v24.4h8.32Z"></path><path class="cls-7" d="M526.7,917.77l-.06-23.62-11.58,19.46h-4.1l-11.53-18.95v23.11h-8.55v-39.36h7.53l14.73,24.46,14.51-24.46h7.48l.11,39.36h-8.55Z"></path><path class="cls-7" d="M573.31,909.34h-18.27l-3.49,8.43h-9.33l17.54-39.36h9l17.6,39.36h-9.56l-3.49-8.43ZM570.45,902.42l-6.24-15.07-6.24,15.07h12.48Z"></path><path class="cls-7" d="M593.28,878.41h9.11v31.94h19.74v7.42h-28.85v-39.36Z"></path><path class="cls-7" d="M686.79,878.41l-12.88,39.36h-9.78l-8.66-26.65-8.94,26.65h-9.73l-12.93-39.36h9.45l8.88,27.67,9.28-27.67h8.43l9,27.89,9.17-27.89h8.72Z"></path><path class="cls-7" d="M719.29,909.34h-18.27l-3.49,8.43h-9.33l17.54-39.36h9l17.6,39.36h-9.56l-3.49-8.43ZM716.42,902.42l-6.24-15.07-6.24,15.07h12.48Z"></path><path class="cls-7" d="M764.33,917.77l-7.59-10.96h-8.38v10.96h-9.11v-39.36h17.04c3.49,0,6.51.58,9.08,1.74,2.57,1.16,4.54,2.81,5.93,4.95,1.39,2.14,2.08,4.67,2.08,7.59s-.7,5.45-2.11,7.56c-1.41,2.12-3.4,3.74-5.99,4.86l8.83,12.65h-9.78ZM762.02,887.61c-1.43-1.18-3.51-1.77-6.24-1.77h-7.42v13.72h7.42c2.74,0,4.82-.6,6.24-1.8,1.42-1.2,2.14-2.89,2.14-5.06s-.71-3.91-2.14-5.09Z"></path><path class="cls-7" d="M813.86,910.46v7.31h-30.48v-39.36h29.75v7.31h-20.69v8.55h18.27v7.09h-18.27v9.11h21.42Z"></path><path class="cls-7" d="M850.8,885.83h-12.6v-7.42h34.3v7.42h-12.6v31.94h-9.11v-31.94Z"></path><path class="cls-7" d="M910.69,910.46v7.31h-30.48v-39.36h29.75v7.31h-20.69v8.55h18.27v7.09h-18.27v9.11h21.42Z"></path><path class="cls-7" d="M924.66,917.18c-2.91-.84-5.24-1.94-7-3.29l3.09-6.86c1.69,1.24,3.69,2.23,6.02,2.98,2.32.75,4.65,1.12,6.97,1.12,2.59,0,4.5-.38,5.74-1.15,1.24-.77,1.86-1.79,1.86-3.06,0-.94-.37-1.72-1.1-2.33-.73-.62-1.67-1.12-2.81-1.49-1.14-.37-2.69-.79-4.64-1.24-3-.71-5.45-1.42-7.37-2.14-1.91-.71-3.55-1.86-4.92-3.43-1.37-1.57-2.05-3.67-2.05-6.3,0-2.29.62-4.36,1.86-6.21,1.24-1.86,3.1-3.33,5.59-4.41,2.49-1.09,5.54-1.63,9.14-1.63,2.51,0,4.97.3,7.37.9,2.4.6,4.5,1.46,6.3,2.59l-2.81,6.92c-3.64-2.06-7.27-3.09-10.91-3.09-2.55,0-4.43.41-5.65,1.24-1.22.83-1.83,1.91-1.83,3.26s.7,2.35,2.11,3.01c1.41.66,3.55,1.3,6.44,1.94,3,.71,5.45,1.43,7.37,2.14,1.91.71,3.55,1.84,4.92,3.37,1.37,1.54,2.05,3.62,2.05,6.24,0,2.25-.63,4.3-1.88,6.16-1.26,1.86-3.14,3.33-5.65,4.41-2.51,1.09-5.57,1.63-9.17,1.63-3.11,0-6.12-.42-9.02-1.27Z"></path><path class="cls-7" d="M967.03,885.83h-12.6v-7.42h34.3v7.42h-12.6v31.94h-9.11v-31.94Z"></path><polygon class="cls-5" points="734.78 458.72 742.87 458.72 742.87 476.53 747.74 476.53 747.74 458.72 755.83 458.72 755.83 453.84 734.78 453.84 734.78 458.72"></polygon><path class="cls-5" d="M442.85,460.35v9.67c0,4.37,2.14,6.51,6.51,6.51h14.55v-4.88h-14.55c-1.12,0-1.63-.51-1.63-1.63v-9.67c0-1.1.51-1.63,1.63-1.63h14.55v-4.88h-14.55c-4.36,0-6.51,2.2-6.51,6.51Z"></path><path class="cls-5" d="M526.83,460.35v9.67c0,4.37,2.14,6.51,6.51,6.51h14.55v-4.88h-14.55c-1.12,0-1.63-.51-1.63-1.63v-2.37h16.18v-4.87h-16.18v-2.43c0-1.1.51-1.63,1.63-1.63h14.55v-4.88h-14.55c-4.36,0-6.51,2.2-6.51,6.51Z"></path><path class="cls-5" d="M569.39,453.84h-14.6v22.69h4.88v-8.88h9.72c1.07,0,1.63.54,1.63,1.58v.79h-.05v6.51h4.87v-6.51h.05v-.79c0-1.68-.38-2.99-1-4.03.61-1.02,1-2.4,1-4.06v-.79c-.05-4.31-2.2-6.51-6.51-6.51ZM571.02,461.14c0,1.12-.56,1.63-1.63,1.63h-9.78l.05-4.06h9.72c1.07,0,1.63.53,1.63,1.63v.79Z"></path><path class="cls-5" d="M513.43,453.84h-14.6v22.69h14.6c4.31,0,6.46-2.2,6.46-6.51v-.79c0-1.67-.32-3.02-.96-4.04.64-1.03.96-2.37.96-4.04v-.79c0-4.31-2.14-6.51-6.46-6.51ZM513.43,458.72c1.02,0,1.58.53,1.58,1.63v.79c0,.95-.41,1.46-1.15,1.59-.14,0-.28-.01-.43-.01h-9.72v-4h9.72ZM515.01,470.02c0,1.1-.56,1.63-1.58,1.63h-9.72v-4h9.72c.15,0,.29,0,.43-.01.75.13,1.15.64,1.15,1.59v.79Z"></path><path class="cls-5" d="M486.97,461.09c0,1.12-.51,1.63-1.63,1.63h-7.94c-1.1,0-1.63-.51-1.63-1.63v-7.25h-4.88v7.25c0,4.36,2.2,6.51,6.51,6.51h1.53v8.93h4.88v-8.93h1.53c4.37,0,6.51-2.14,6.51-6.51v-7.25h-4.88v7.25Z"></path><path class="cls-5" d="M582.84,460.35v.79c0,4.34,2.14,6.51,6.51,6.51h8.09c1.02,0,1.58.54,1.58,1.58v.79c0,1.12-.56,1.63-1.58,1.63h-14.6v4.88h14.6c4.31,0,6.46-2.14,6.46-6.51v-.79c0-4.31-2.14-6.46-6.46-6.46h-8.09c-1.12,0-1.63-.51-1.63-1.63v-.79c0-1.1.51-1.63,1.63-1.63h14.55v-4.88h-14.55c-4.36,0-6.51,2.2-6.51,6.51Z"></path><path class="cls-5" d="M610.83,460.35v9.67c0,4.37,2.14,6.51,6.51,6.51h14.55v-4.88h-14.55c-1.12,0-1.63-.51-1.63-1.63v-2.37h16.18v-4.87h-16.18v-2.43c0-1.1.51-1.63,1.63-1.63h14.55v-4.88h-14.55c-4.36,0-6.51,2.2-6.51,6.51Z"></path><path class="cls-5" d="M638.86,460.35v9.67c0,4.37,2.14,6.51,6.51,6.51h14.55v-4.88h-14.55c-1.12,0-1.63-.51-1.63-1.63v-9.67c0-1.1.51-1.63,1.63-1.63h14.55v-4.88h-14.55c-4.36,0-6.51,2.2-6.51,6.51Z"></path><path class="cls-5" d="M683.04,453.84l.05,16.18c0,1.12-.56,1.63-1.63,1.63h-8.09c-1.12,0-1.63-.51-1.63-1.63v-16.18h-4.87v16.18c0,4.37,2.14,6.51,6.51,6.51h8.09c4.32,0,6.51-2.14,6.51-6.51l-.05-16.18h-4.88Z"></path><path class="cls-5" d="M709.52,453.84h-14.6v22.69h4.88v-8.88h9.72c1.07,0,1.63.54,1.63,1.58v.79h-.05v6.51h4.87v-6.51h.05v-.79c0-1.68-.38-2.99-1-4.03.61-1.02,1-2.4,1-4.06v-.79c-.05-4.31-2.2-6.51-6.51-6.51ZM711.15,461.14c0,1.12-.56,1.63-1.63,1.63h-9.78l.05-4.06h9.72c1.07,0,1.63.53,1.63,1.63v.79Z"></path><rect class="cls-8" x="722.96" y="453.84" width="4.88" height="22.69"></rect><path class="cls-5" d="M778.9,453.84v7.25c0,1.12-.51,1.63-1.63,1.63h-7.94c-1.1,0-1.63-.51-1.63-1.63v-7.25h-4.88v7.25c0,4.36,2.2,6.51,6.51,6.51h1.53v8.93h4.88v-8.93h1.53c4.37,0,6.51-2.14,6.51-6.51v-7.25h-4.88Z"></path><path class="cls-4" d="M834.49,467.05v-4.87h-16.18v-2.43c0-1.1.51-1.63,1.63-1.63h14.55v-4.88h-14.55c-4.36,0-6.51,2.2-6.51,6.51v9.67c0,4.37,4.87,1.12,4.87,0v-2.37h16.18Z"></path><rect class="cls-7" x="813.44" y="463.99" width="4.88" height="11.94"></rect><path class="cls-4" d="M885.62,469.42c0,1.12-.56,1.63-1.63,1.63h-8.09c-1.12,0-1.63-.51-1.63-1.63v-16.18h-4.87v16.18c0,4.37,2.14,6.51,6.51,6.51h8.09c4.32,0,6.51-2.14,6.51-6.51l-.05-16.18h-4.88l.05,16.18Z"></path><path class="cls-4" d="M857.61,462.81l.02,6.62c0,1.12-.56,1.63-1.63,1.63h-8.09c-1.12,0-1.63-.51-1.63-1.63v-6.62h-4.87v6.62c0,4.37,2.14,6.51,6.51,6.51h8.09c4.32,0,6.51-2.14,6.51-6.51l-.02-6.62h-4.88Z"></path><path class="cls-4" d="M857.61,466.37l.02-6.62c0-1.12-.56-1.63-1.63-1.63h-8.09c-1.12,0-1.63.51-1.63,1.63v6.62h-4.87v-6.62c0-4.37,2.14-6.51,6.51-6.51h8.09c4.32,0,6.51,2.14,6.51,6.51l-.02,6.62h-4.88Z"></path><path class="cls-4" d="M939.69,453.24l-14.6.03v22.66h14.6c4.31,0,6.51-2.14,6.51-6.51v-9.67c-.05-4.31-2.19-6.51-6.51-6.51ZM941.33,469.42c0,1.12-.56,1.63-1.63,1.63h-9.72v-12.94h9.72c1.07,0,1.63.53,1.63,1.63v9.67Z"></path><path class="cls-4" d="M902.29,459.75c0-1.1.51-1.63,1.63-1.63h8.09c1.02,0,1.58.53,1.58,1.63v16.18h4.87v-16.18c0-4.31-2.14-6.51-6.45-6.51h-8.09c-.61,0-1.17.28-1.63.84v-.84h-4.87v22.69h4.87v-16.18Z"></path><path class="cls-4" d="M968.02,453.24h-8.09c-4.37,0-6.51,2.2-6.51,6.51v16.18h4.87v-4.82l11.31-.05v4.87h4.87v-16.18c0-4.31-2.14-6.51-6.46-6.51ZM969.6,466.21h-11.36l.05-6.46c0-1.1.51-1.63,1.63-1.63h8.09c1.02,0,1.58.53,1.58,1.63v6.46Z"></path><polygon class="cls-4" points="989.5 475.93 994.38 475.93 994.38 458.12 1002.47 458.12 1002.47 453.24 981.42 453.24 981.42 458.12 989.5 458.12 989.5 475.93"></polygon><rect class="cls-7" x="1009.45" y="453.24" width="4.88" height="22.69"></rect><path class="cls-4" d="M1037.48,462.81l.02,6.62c0,1.12-.56,1.63-1.63,1.63h-8.09c-1.12,0-1.63-.51-1.63-1.63v-6.62h-4.87v6.62c0,4.37,2.14,6.51,6.51,6.51h8.09c4.32,0,6.51-2.14,6.51-6.51l-.02-6.62h-4.88Z"></path><path class="cls-4" d="M1037.48,466.37l.02-6.62c0-1.12-.56-1.63-1.63-1.63h-8.09c-1.12,0-1.63.51-1.63,1.63v6.62h-4.87v-6.62c0-4.37,2.14-6.51,6.51-6.51h8.09c4.32,0,6.51,2.14,6.51,6.51l-.02,6.62h-4.88Z"></path><path class="cls-4" d="M1054.2,459.75c0-1.1.51-1.63,1.63-1.63h8.09c1.02,0,1.58.53,1.58,1.63v16.18h4.87v-16.18c0-4.31-2.14-6.51-6.45-6.51h-8.09c-.61,0-1.17.28-1.63.84v-.84h-4.87v22.69h4.87v-16.18Z"></path><path class="cls-7" d="M1070.38,334.98c-.07-19.44-9.8-29.17-29.24-29.17h-65.65v102.1h65.72c19.44,0,29.17-9.71,29.17-29.17.32-7.8-.83-16.76-4.36-21.87,3.53-5.06,4.69-14.08,4.36-21.89ZM1048.51,378.74c0,4.88-2.5,7.3-7.37,7.3h-43.76v-18.25h43.76c7.07-.15,7.73,5.2,7.37,10.95ZM1048.51,338.62c0,4.9-2.5,7.3-7.37,7.3h-43.83l.07-18.23h43.76c7.07-.16,7.73,5.17,7.37,10.93Z"></path><path class="cls-8" d="M471.16,245.3c-26.65.23-28.31,24.83-28.31,24.83v123.37l60.55.16,12.23,34.26,35.28.16-31.4-89.65h-53.72l16.87-44.22,74.54-.28,49.52,133.99h8.47l-65.92-182.63s-51.44-.24-78.12,0ZM517.09,347.89l-13.06,36.29-54.88-.16,13.25-36.13h54.68Z"></path><path class="cls-4" d="M931.45,305.81h-36.42c-19.66,0-29.3,9.89-29.3,29.3v72.84h21.95v-21.72l50.9-.23v21.95h21.95v-72.84c0-19.41-9.65-29.3-29.06-29.3ZM938.57,364.17h-51.13l.23-29.07c0-4.94,2.3-7.34,7.36-7.34h36.42c4.59,0,7.12,2.4,7.12,7.34v29.07Z"></path><rect class="cls-8" x="756.1" y="305.81" width="21.89" height="21.89"></rect><path class="cls-7" d="M785.28,386.04c-4.88,0-7.28-2.43-7.28-7.3v-40.03h-21.89v40.03c0,19.46,9.71,29.17,29.17,29.17h65.65v-21.87h-65.65Z"></path><path class="cls-7" d="M730.35,270.11s-1.66-24.7-28.31-24.94c-9.09-.08-90.89.01-98.06.03,0,0-.04-.03-.04-.03v.03s0,0,0,0l.02.02,51.66,138.69h53.39l-15.33,44.1,33.21.08c3.53,0,3.25-4.23,3.25-4.23l.18-94.56h-56.29l12.37-35.71h43.92l.03-23.47ZM724.76,338.71l-12.7,35.75h-54.03l12.88-35.75h53.86Z"></path><path class="cls-6" d="M289.92,706.3c-3.73-1.82-6.69-4.42-8.89-7.79-2.2-3.36-3.38-7.19-3.55-11.5-.16-4.29.72-8.21,2.66-11.73s4.69-6.34,8.27-8.44,7.64-3.24,12.19-3.41c4.55-.18,8.68.65,12.39,2.47,3.7,1.82,6.67,4.42,8.89,7.79,2.22,3.36,3.41,7.19,3.57,11.5.17,4.29-.73,8.21-2.69,11.73-1.96,3.53-4.71,6.34-8.27,8.44-3.56,2.1-7.61,3.24-12.16,3.41-4.55.18-8.69-.65-12.42-2.47ZM308.95,698.07c2.04-1.27,3.62-2.99,4.73-5.16,1.11-2.17,1.61-4.62,1.51-7.33-.1-2.71-.79-5.11-2.06-7.19-1.27-2.08-2.97-3.68-5.11-4.79-2.13-1.11-4.49-1.62-7.08-1.52s-4.9.79-6.95,2.05c-2.04,1.27-3.62,2.99-4.72,5.17-1.11,2.17-1.61,4.62-1.51,7.33s.79,5.11,2.06,7.19,2.97,3.68,5.11,4.79c2.13,1.11,4.49,1.62,7.08,1.52,2.59-.1,4.9-.79,6.95-2.06Z"></path><path class="cls-6" d="M344.8,670.66l.43,11.59,20.29-.75.3,8.14-20.29.75.59,15.97-10.15.38-1.63-43.84,33.13-1.23.3,8.14-22.98.85Z"></path><path class="cls-6" d="M405.68,668.57l-14.03.5-.29-8.27,38.2-1.36.29,8.27-14.03.5,1.26,35.57-10.14.36-1.27-35.57Z"></path><path class="cls-6" d="M477.32,657.81l1.49,43.84-10.14.34-.61-17.98-19.91.68.61,17.97-10.15.34-1.49-43.84,10.14-.34.59,17.28,19.91-.67-.59-17.28,10.14-.35Z"></path><path class="cls-6" d="M524.98,692l.26,8.14-33.94,1.09-1.41-43.84,33.13-1.07.26,8.14-23.05.75.3,9.52,20.36-.66.26,7.9-20.36.66.32,10.14,23.87-.77Z"></path><path class="cls-6" d="M575.76,683.09l.45,15.53-10.15.3-.45-15.66-17.79-27.7,10.77-.31,12.28,19.14,11.15-19.81,9.96-.29-16.22,28.81Z"></path><path class="cls-6" d="M632.92,688.96l.21,8.15-33.95.87-1.13-43.85,33.14-.85.21,8.14-23.05.59.24,9.52,20.36-.53.2,7.9-20.36.52.26,10.15,23.87-.62Z"></path><path class="cls-6" d="M671.98,686.88l-20.36.42-3.69,9.47-10.4.21,18.66-44.25,10.02-.2,20.5,43.45-10.65.21-4.07-9.32ZM668.63,679.24l-7.3-16.65-6.61,16.93,13.91-.29Z"></path><path class="cls-6" d="M721.16,695.62l-8.58-12.14h-.5s-8.83.09-8.83.09l.12,12.22-10.15.1-.42-43.86,18.99-.18c3.89-.03,7.27.58,10.14,1.85s5.09,3.08,6.66,5.45c1.57,2.37,2.37,5.18,2.4,8.44.03,3.26-.72,6.07-2.27,8.45s-3.75,4.2-6.62,5.48l9.97,14.01-10.9.1ZM718.27,662.02c-1.6-1.3-3.93-1.93-6.97-1.91l-8.27.08.15,15.29,8.27-.08c3.05-.03,5.36-.72,6.94-2.08,1.57-1.35,2.35-3.24,2.33-5.66-.03-2.47-.84-4.35-2.44-5.65Z"></path><path class="cls-6" d="M319.21,585.18c3.91,1.59,6.96,3.94,9.16,7.07,2.2,3.11,3.38,6.86,3.55,11.24.17,4.31-.73,8.13-2.68,11.43-1.95,3.3-4.82,5.88-8.59,7.74-3.78,1.86-8.27,2.89-13.49,3.09l-11.86.45.62,16.24-13.63.52-2.24-58.88,25.49-.97c5.22-.2,9.78.49,13.69,2.09ZM315.21,611.65c2.07-1.85,3.04-4.4,2.91-7.65-.13-3.31-1.29-5.81-3.49-7.49s-5.35-2.45-9.44-2.29l-11.11.42.78,20.44,11.1-.42c4.09-.16,7.17-1.16,9.24-3.01Z"></path><path class="cls-6" d="M383.29,639.16l-11.96-15.99-.67.03-11.86.43.6,16.41-13.63.5-2.16-58.89,25.49-.93c5.22-.19,9.78.51,13.68,2.11s6.95,3.96,9.15,7.08,3.37,6.87,3.53,11.24-.75,8.19-2.74,11.43c-1.99,3.24-4.89,5.78-8.69,7.6l13.9,18.44-14.64.54ZM378.18,594.15c-2.2-1.69-5.34-2.45-9.44-2.3l-11.1.4.75,20.53,11.1-.4c4.09-.15,7.18-1.16,9.24-3.04,2.06-1.87,3.04-4.44,2.92-7.69-.12-3.31-1.28-5.81-3.48-7.5Z"></path><path class="cls-6" d="M422.31,634.81c-5-2.47-8.97-5.96-11.9-10.5-2.94-4.53-4.51-9.69-4.7-15.46-.2-5.78,1.01-11.03,3.62-15.75,2.61-4.72,6.33-8.49,11.15-11.3s10.28-4.31,16.4-4.53c6.11-.21,11.66.91,16.62,3.38,4.97,2.47,8.94,5.97,11.9,10.5,2.96,4.53,4.55,9.69,4.75,15.46.2,5.78-1.02,11.03-3.67,15.75-2.64,4.73-6.36,8.49-11.15,11.3-4.79,2.81-10.24,4.31-16.35,4.53-6.11.21-11.67-.91-16.67-3.38ZM447.92,623.86c2.75-1.69,4.87-4,6.37-6.92,1.5-2.91,2.18-6.2,2.06-9.84s-1.04-6.87-2.73-9.67c-1.7-2.81-3.98-4.96-6.84-6.46-2.86-1.51-6.03-2.19-9.5-2.07-3.48.12-6.59,1.03-9.34,2.72-2.75,1.69-4.87,4-6.37,6.92-1.5,2.91-2.19,6.2-2.06,9.84s1.04,6.87,2.74,9.68c1.7,2.8,3.97,4.96,6.83,6.46,2.86,1.51,6.03,2.19,9.51,2.07,3.48-.12,6.59-1.03,9.34-2.72Z"></path><path class="cls-6" d="M482.17,576.74l26.76-.86c6.39-.2,12.08.84,17.07,3.12s8.91,5.6,11.78,9.94c2.86,4.35,4.39,9.47,4.57,15.36.19,5.88-1.01,11.09-3.58,15.61-2.58,4.52-6.28,8.08-11.11,10.67-4.83,2.6-10.44,4-16.84,4.2l-26.76.86-1.88-58.9ZM509.78,623.61c5.89-.19,10.53-1.98,13.94-5.37,3.4-3.39,5.01-7.9,4.83-13.5-.18-5.61-2.07-10-5.68-13.17-3.61-3.17-8.36-4.66-14.25-4.47l-12.45.4,1.17,36.52,12.45-.4Z"></path><path class="cls-6" d="M562.74,627.19c-4.82-4.52-7.34-11.11-7.59-19.74l-.93-32.99,13.63-.38.91,32.48c.3,10.54,4.82,15.69,13.57,15.45,4.26-.12,7.48-1.49,9.65-4.1,2.17-2.61,3.18-6.64,3.03-12.09l-.91-32.48,13.46-.38.93,32.98c.24,8.64-1.91,15.36-6.46,20.14-4.55,4.79-11.04,7.3-19.45,7.54-8.41.23-15.03-1.91-19.85-6.44Z"></path><path class="cls-6" d="M637.19,628.27c-4.91-2.5-8.81-6.03-11.68-10.6-2.88-4.57-4.39-9.77-4.51-15.6-.13-5.84,1.15-11.1,3.82-15.79,2.68-4.69,6.41-8.4,11.21-11.11,4.79-2.72,10.22-4.15,16.28-4.28,5.11-.12,9.74.68,13.9,2.39,4.17,1.71,7.68,4.21,10.57,7.51l-8.57,8.27c-4.09-4.51-9.07-6.7-14.97-6.57-3.65.08-6.88.95-9.71,2.61-2.83,1.66-5.01,3.94-6.54,6.84-1.54,2.89-2.26,6.17-2.18,9.82s.95,6.88,2.61,9.71c1.66,2.83,3.94,5.01,6.84,6.55,2.9,1.54,6.17,2.26,9.82,2.19,5.89-.13,10.78-2.57,14.66-7.32l8.93,7.89c-2.73,3.48-6.15,6.17-10.26,8.06-4.11,1.89-8.72,2.89-13.83,3-6,.14-11.46-1.05-16.37-3.56Z"></path><path class="cls-6" d="M700.72,582.17l-18.86.2-.12-11.11,51.35-.54.12,11.11-18.86.19.5,47.81-13.64.14-.5-47.81Z"></path><path class="cls-6" d="M876.43,673.12l-.53,23.06-92.39-2.11.42-18.34,48.17-43.46c5.12-4.66,8.59-8.68,10.41-12.08,1.82-3.39,2.77-6.78,2.85-10.15.11-4.89-1.46-8.69-4.72-11.38-3.26-2.7-8.09-4.12-14.49-4.26-5.36-.12-10.21.79-14.57,2.72-4.35,1.94-8.04,4.91-11.04,8.92l-20.31-13.74c4.93-6.99,11.64-12.4,20.12-16.23,8.48-3.83,18.13-5.61,28.95-5.37,9.08.21,16.99,1.87,23.74,5,6.74,3.13,11.95,7.43,15.61,12.94,3.66,5.5,5.41,11.92,5.24,19.26-.15,6.64-1.69,12.83-4.62,18.59-2.93,5.75-8.49,12.27-16.7,19.54l-28.72,25.91,52.57,1.19Z"></path><path class="cls-6" d="M909.38,691.78c-7.77-5.24-13.74-12.68-17.94-22.3-4.2-9.62-6.1-21.01-5.7-34.16.4-13.15,2.98-24.41,7.75-33.76,4.77-9.35,11.18-16.41,19.25-21.18,8.07-4.76,17.17-6.99,27.29-6.69s19.07,3.08,26.84,8.32c7.76,5.25,13.74,12.68,17.94,22.3,4.19,9.62,6.1,21.01,5.7,34.16-.4,13.16-2.98,24.41-7.75,33.76-4.77,9.36-11.19,16.41-19.25,21.18-8.07,4.77-17.17,7-27.29,6.7-10.13-.31-19.07-3.08-26.84-8.33ZM954.78,667.11c4.44-6.27,6.87-16.11,7.27-29.49.41-13.39-1.42-23.35-5.48-29.88-4.06-6.53-9.81-9.91-17.26-10.13-7.33-.22-13.22,2.81-17.66,9.08-4.45,6.27-6.87,16.1-7.27,29.49-.41,13.38,1.42,23.34,5.48,29.88s9.75,9.91,17.09,10.13c7.45.23,13.39-2.8,17.84-9.07Z"></path><path class="cls-6" d="M1090.26,679.99l-.79,23.04-92.36-3.15.63-18.33,48.66-42.92c5.17-4.6,8.68-8.59,10.55-11.96,1.87-3.37,2.85-6.75,2.97-10.12.17-4.89-1.36-8.7-4.59-11.43s-8.04-4.21-14.44-4.43c-5.36-.18-10.22.67-14.6,2.56-4.38,1.89-8.09,4.83-11.14,8.8l-20.15-13.97c5.01-6.94,11.78-12.27,20.3-16,8.52-3.73,18.19-5.41,29.01-5.04,9.08.31,16.97,2.07,23.68,5.27s11.86,7.57,15.46,13.11c3.59,5.54,5.27,11.98,5.02,19.31-.23,6.63-1.84,12.81-4.83,18.54-2.99,5.73-8.63,12.18-16.92,19.35l-29.01,25.58,52.55,1.79Z"></path><path class="cls-6" d="M1209.14,681.74l-19.9-.73-.95,25.67-27.58-1.02.94-25.66-65.81-2.43.7-19.03,60.47-75.39,29.68,1.1-56.13,71.53,32.82,1.21.84-22.88,26.71.99-.84,22.87,19.9.73-.85,23.04Z"></path></g></svg>