<svg width="136" height="23" viewBox="0 0 136 23" fill="none" xmlns="http://www.w3.org/2000/svg">
<path d="M0.972344 22.28C0.945677 22.3067 0.91901 22.32 0.892344 22.32C0.812344 22.32 0.772344 22.2 0.772344 21.96C0.772344 21.8 0.812344 21.64 0.892344 21.48C0.99901 21.2933 1.18568 21.1867 1.45234 21.16C2.19901 21.1067 2.90568 20.8533 3.57234 20.4C4.23901 19.9467 4.82568 19.4133 5.33234 18.8C5.83901 18.16 6.19901 17.56 6.41234 17L10.0923 7.8C10.599 6.54667 11.1723 5.33333 11.8123 4.16C12.479 2.98667 13.319 2.02667 14.3323 1.28C15.3723 0.533333 16.679 0.16 18.2523 0.16C18.8657 0.16 19.479 0.24 20.0923 0.399999C20.7323 0.533332 21.2657 0.759999 21.6923 1.08C22.119 1.4 22.3323 1.85333 22.3323 2.44C22.3323 2.52 22.3323 2.6 22.3323 2.68C22.3323 2.76 22.319 2.84 22.2923 2.92C22.2123 3.34667 21.9723 3.77333 21.5723 4.2C21.199 4.62667 20.9057 5.16 20.6923 5.8C20.6657 5.98667 20.5457 6.08 20.3323 6.08C20.1457 6.08 20.1057 5.96 20.2123 5.72C20.4257 5.4 20.5857 5.02667 20.6923 4.6C20.8257 4.14667 20.8923 3.69333 20.8923 3.24C20.8923 2.54667 20.7323 1.93333 20.4123 1.4C20.0923 0.866665 19.5457 0.599999 18.7723 0.599999C18.079 0.599999 17.3723 0.799999 16.6523 1.2C15.9323 1.6 15.3057 2.29333 14.7723 3.28L7.37234 16.92C6.67901 18.2 6.03901 19.12 5.45234 19.68C4.89234 20.2133 4.42568 20.5467 4.05234 20.68H13.6923C14.9723 20.68 16.159 20.64 17.2523 20.56C18.3457 20.48 19.0123 20.28 19.2523 19.96C19.519 19.5867 19.6523 19.1867 19.6523 18.76C19.6523 18.0933 19.2923 17.6 18.5723 17.28C18.4923 17.2267 18.4523 17.1733 18.4523 17.12C18.4523 17.0667 18.479 17.0133 18.5323 16.96C18.6123 16.9067 18.7057 16.9067 18.8123 16.96C19.0523 17.0667 19.3323 17.3067 19.6523 17.68C19.999 18.0267 20.319 18.4133 20.6123 18.84C20.9057 19.24 21.0923 19.56 21.1723 19.8C21.2523 20.04 21.2923 20.28 21.2923 20.52C21.2923 21.6133 20.3457 22.16 18.4523 22.16C16.959 22.16 15.359 22.1067 13.6523 22C11.9457 21.8933 10.2523 21.7733 8.57234 21.64C6.91901 21.5067 5.35901 21.4133 3.89234 21.36C3.33234 21.3067 2.77234 21.3867 2.21234 21.6C1.67901 21.7867 1.26568 22.0133 0.972344 22.28ZM27.5046 22.1591C26.5728 22.1591 25.7698 21.9811 25.0955 21.625C24.4251 21.2652 23.908 20.75 23.5444 20.0795C23.1845 19.4053 23.0046 18.5985 23.0046 17.6591C23.0046 16.7576 23.1864 15.9697 23.5501 15.2955C23.9137 14.6212 24.427 14.0966 25.0898 13.7216C25.7527 13.3466 26.5349 13.1591 27.4364 13.1591C28.0955 13.1591 28.6921 13.2614 29.2262 13.4659C29.7603 13.6705 30.2167 13.9678 30.5955 14.358C30.9743 14.7443 31.266 15.214 31.4705 15.767C31.6751 16.3201 31.7773 16.9432 31.7773 17.6364V18.3636H23.9819V16.6364H28.891C28.8872 16.3864 28.8228 16.1667 28.6978 15.9773C28.5766 15.7841 28.4118 15.6345 28.2035 15.5284C27.9989 15.4186 27.766 15.3636 27.5046 15.3636C27.2508 15.3636 27.0179 15.4186 26.8058 15.5284C26.5936 15.6345 26.4232 15.7822 26.2944 15.9716C26.1694 16.161 26.1031 16.3826 26.0955 16.6364V18.5C26.0955 18.7803 26.1542 19.0303 26.2717 19.25C26.3891 19.4697 26.5576 19.642 26.7773 19.767C26.997 19.892 27.2622 19.9545 27.5728 19.9545C27.7887 19.9545 27.9857 19.9242 28.1637 19.8636C28.3455 19.803 28.5008 19.7159 28.6296 19.6023C28.7584 19.4848 28.8531 19.3447 28.9137 19.1818H31.7773C31.6789 19.7879 31.4459 20.3144 31.0785 20.7614C30.7111 21.2045 30.2243 21.5492 29.6183 21.7955C29.016 22.0379 28.3114 22.1591 27.5046 22.1591ZM35.489 22.1364C34.9322 22.1364 34.4397 22.0455 34.0117 21.8636C33.5875 21.678 33.2541 21.3977 33.0117 21.0227C32.7693 20.6477 32.6481 20.1705 32.6481 19.5909C32.6481 19.1136 32.7295 18.7064 32.8924 18.3693C33.0553 18.0284 33.2826 17.75 33.5742 17.5341C33.8659 17.3182 34.2049 17.1534 34.5913 17.0398C34.9814 16.9261 35.4019 16.8523 35.8526 16.8182C36.3413 16.7803 36.7333 16.7348 37.0288 16.6818C37.328 16.625 37.5439 16.5473 37.6765 16.4489C37.8091 16.3466 37.8754 16.2121 37.8754 16.0455V16.0227C37.8754 15.7955 37.7882 15.6212 37.614 15.5C37.4397 15.3788 37.2163 15.3182 36.9435 15.3182C36.6443 15.3182 36.4 15.3845 36.2106 15.517C36.025 15.6458 35.9132 15.8447 35.8754 16.1136H32.989C33.0269 15.5833 33.1954 15.0947 33.4947 14.6477C33.7977 14.197 34.239 13.8371 34.8185 13.5682C35.3981 13.2955 36.1216 13.1591 36.989 13.1591C37.614 13.1591 38.1746 13.233 38.6708 13.3807C39.167 13.5246 39.5894 13.7273 39.9379 13.9886C40.2863 14.2462 40.5515 14.5492 40.7333 14.8977C40.9189 15.2424 41.0117 15.6174 41.0117 16.0227V22H38.0799V20.7727H38.0117C37.8375 21.0985 37.6254 21.3617 37.3754 21.5625C37.1291 21.7633 36.8469 21.9091 36.5288 22C36.2144 22.0909 35.8678 22.1364 35.489 22.1364ZM36.5117 20.1591C36.7504 20.1591 36.9738 20.1098 37.1822 20.0114C37.3943 19.9129 37.5666 19.7708 37.6992 19.5852C37.8318 19.3996 37.8981 19.1742 37.8981 18.9091V18.1818C37.8147 18.2159 37.7257 18.2481 37.631 18.2784C37.5401 18.3087 37.4416 18.3371 37.3356 18.3636C37.2333 18.3902 37.1235 18.4148 37.006 18.4375C36.8924 18.4602 36.7731 18.4811 36.6481 18.5C36.4057 18.5379 36.2068 18.6004 36.0515 18.6875C35.9 18.7708 35.7863 18.875 35.7106 19C35.6386 19.1212 35.6026 19.2576 35.6026 19.4091C35.6026 19.6515 35.6879 19.8371 35.8583 19.9659C36.0288 20.0947 36.2466 20.1591 36.5117 20.1591ZM45.3285 19.9318L45.3512 16.2045H45.7603L47.8739 13.2727H51.3967L47.8512 17.8409H46.9648L45.3285 19.9318ZM42.5103 22V10.3636H45.6467V22H42.5103ZM47.8967 22L45.8967 18.5455L47.9421 16.3182L51.4876 22H47.8967ZM51.818 22.76C51.7646 22.76 51.6713 22.7333 51.538 22.68C51.4046 22.6533 51.338 22.6 51.338 22.52C51.338 22.4933 51.3513 22.4667 51.378 22.44C51.4046 22.4133 51.418 22.4 51.418 22.4C51.6046 22.3467 51.6846 22.32 51.658 22.32C51.658 22.3467 51.7513 22.3333 51.938 22.28C52.3913 22.12 52.778 21.8933 53.098 21.6C53.4446 21.28 53.738 20.9067 53.978 20.48C55.2313 18.4 56.4313 16.2933 57.578 14.16C58.7246 12 59.8713 9.85333 61.018 7.72C61.338 7.16 61.6446 6.58667 61.938 6C62.2313 5.41333 62.5246 4.82667 62.818 4.24C62.9513 3.92 63.0846 3.6 63.218 3.28C63.378 2.96 63.5513 2.65333 63.738 2.36C63.9513 1.98667 64.2846 1.66667 64.738 1.4C65.218 1.10667 65.6713 0.893332 66.098 0.759999H65.138C64.6046 0.759999 63.8713 0.8 62.938 0.88C62.0313 0.933333 61.0713 1.04 60.058 1.2C59.0446 1.36 58.138 1.6 57.338 1.92C56.5646 2.24 56.0313 2.66667 55.738 3.2C55.4713 3.68 55.338 4.14667 55.338 4.6C55.338 5.13333 55.458 5.49333 55.698 5.68C55.938 5.86667 56.058 5.98667 56.058 6.04C56.058 6.09333 56.018 6.14667 55.938 6.2C55.858 6.25333 55.7913 6.28 55.738 6.28C55.578 6.28 55.378 6.12 55.138 5.8C54.898 5.48 54.6713 5.13333 54.458 4.76C54.2713 4.36 54.1513 4.09333 54.098 3.96C54.018 3.66667 53.978 3.37333 53.978 3.08C53.978 2.36 54.218 1.81333 54.698 1.44C55.2046 1.04 55.818 0.759998 56.538 0.599999C57.258 0.439999 57.978 0.346666 58.698 0.319998C59.4446 0.266665 60.058 0.239999 60.538 0.239999C61.8713 0.239999 63.2046 0.213332 64.538 0.16C65.8713 0.0799993 67.1913 0.039999 68.498 0.039999C69.7513 0.039999 70.978 0.133332 72.178 0.319998C73.4046 0.479999 74.5113 0.813333 75.498 1.32C76.4846 1.82667 77.2713 2.54667 77.858 3.48C78.4713 4.41333 78.778 5.64 78.778 7.16C78.778 8.54667 78.5113 9.97333 77.978 11.44C77.4713 12.88 76.8313 14.1733 76.058 15.32C72.8046 20.2 68.2446 22.64 62.378 22.64C61.4713 22.64 60.538 22.5467 59.578 22.36C58.6446 22.1733 57.7646 21.8667 56.938 21.44C56.7513 21.3333 56.5513 21.2533 56.338 21.2C56.1513 21.12 55.9513 21.08 55.738 21.08C55.2846 21.08 54.8313 21.2267 54.378 21.52C53.9246 21.7867 53.4846 22.0533 53.058 22.32C52.6313 22.6133 52.218 22.76 51.818 22.76ZM61.898 22.08C63.898 22.08 65.7646 21.6933 67.498 20.92C69.2313 20.1467 70.7513 19.0667 72.058 17.68C73.3646 16.2667 74.3913 14.6533 75.138 12.84C75.4846 11.9867 75.7646 11.0933 75.978 10.16C76.218 9.22667 76.338 8.30667 76.338 7.4C76.338 5.32 75.698 3.72 74.418 2.6C73.1646 1.45333 71.5113 0.88 69.458 0.88C68.9513 0.88 68.418 0.933333 67.858 1.04C67.3246 1.14666 66.8846 1.4 66.538 1.8C66.1913 2.22667 65.858 2.69333 65.538 3.2C65.2446 3.70667 64.9513 4.2 64.658 4.68C64.0446 5.74667 63.458 6.85333 62.898 8C62.3646 9.12 61.818 10.2267 61.258 11.32C60.378 13 59.5113 14.6933 58.658 16.4C58.4713 16.7733 58.2713 17.16 58.058 17.56C57.8713 17.9333 57.6846 18.3067 57.498 18.68C57.4446 18.8133 57.3913 18.96 57.338 19.12C57.2846 19.2533 57.258 19.4133 57.258 19.6C57.258 19.9467 57.3646 20.24 57.578 20.48C57.7913 20.72 58.018 20.9467 58.258 21.16C58.7646 21.5333 59.3513 21.7867 60.018 21.92C60.6846 22.0267 61.3113 22.08 61.898 22.08ZM81.4343 22.1591C80.5025 22.1591 79.6995 21.9811 79.0252 21.625C78.3548 21.2652 77.8377 20.75 77.4741 20.0795C77.1142 19.4053 76.9343 18.5985 76.9343 17.6591C76.9343 16.7576 77.1161 15.9697 77.4798 15.2955C77.8434 14.6212 78.3567 14.0966 79.0195 13.7216C79.6824 13.3466 80.4646 13.1591 81.3661 13.1591C82.0252 13.1591 82.6218 13.2614 83.1559 13.4659C83.69 13.6705 84.1464 13.9678 84.5252 14.358C84.904 14.7443 85.1957 15.214 85.4002 15.767C85.6048 16.3201 85.707 16.9432 85.707 17.6364V18.3636H77.9116V16.6364H82.8207C82.8169 16.3864 82.7525 16.1667 82.6275 15.9773C82.5063 15.7841 82.3415 15.6345 82.1332 15.5284C81.9286 15.4186 81.6957 15.3636 81.4343 15.3636C81.1805 15.3636 80.9476 15.4186 80.7354 15.5284C80.5233 15.6345 80.3529 15.7822 80.2241 15.9716C80.0991 16.161 80.0328 16.3826 80.0252 16.6364V18.5C80.0252 18.7803 80.0839 19.0303 80.2013 19.25C80.3188 19.4697 80.4873 19.642 80.707 19.767C80.9267 19.892 81.1919 19.9545 81.5025 19.9545C81.7184 19.9545 81.9154 19.9242 82.0934 19.8636C82.2752 19.803 82.4305 19.7159 82.5593 19.6023C82.6881 19.4848 82.7828 19.3447 82.8434 19.1818H85.707C85.6085 19.7879 85.3756 20.3144 85.0082 20.7614C84.6407 21.2045 84.154 21.5492 83.5479 21.7955C82.9457 22.0379 82.2411 22.1591 81.4343 22.1591ZM92.1914 13.2727V15.5455H86.4414V13.2727H92.1914ZM87.555 11.1818H90.6914V19.1932C90.6914 19.3144 90.7122 19.4167 90.7539 19.5C90.7956 19.5795 90.86 19.6402 90.9471 19.6818C91.0342 19.7197 91.146 19.7386 91.2823 19.7386C91.377 19.7386 91.4869 19.7273 91.6119 19.7045C91.7406 19.6818 91.8353 19.6629 91.896 19.6477L92.3505 21.8523C92.2103 21.8939 92.0096 21.9451 91.7482 22.0057C91.4906 22.0663 91.1838 22.1061 90.8278 22.125C90.1081 22.1629 89.5039 22.089 89.0153 21.9034C88.5266 21.714 88.1592 21.4167 87.913 21.0114C87.6668 20.6061 87.5475 20.0985 87.555 19.4886V11.1818ZM97.5593 22.1591C96.6275 22.1591 95.8245 21.9811 95.1502 21.625C94.4798 21.2652 93.9627 20.75 93.5991 20.0795C93.2392 19.4053 93.0593 18.5985 93.0593 17.6591C93.0593 16.7576 93.2411 15.9697 93.6048 15.2955C93.9684 14.6212 94.4817 14.0966 95.1445 13.7216C95.8074 13.3466 96.5896 13.1591 97.4911 13.1591C98.1502 13.1591 98.7468 13.2614 99.2809 13.4659C99.815 13.6705 100.271 13.9678 100.65 14.358C101.029 14.7443 101.321 15.214 101.525 15.767C101.73 16.3201 101.832 16.9432 101.832 17.6364V18.3636H94.0366V16.6364H98.9457C98.9419 16.3864 98.8775 16.1667 98.7525 15.9773C98.6313 15.7841 98.4665 15.6345 98.2582 15.5284C98.0536 15.4186 97.8207 15.3636 97.5593 15.3636C97.3055 15.3636 97.0726 15.4186 96.8604 15.5284C96.6483 15.6345 96.4779 15.7822 96.3491 15.9716C96.2241 16.161 96.1578 16.3826 96.1502 16.6364V18.5C96.1502 18.7803 96.2089 19.0303 96.3263 19.25C96.4438 19.4697 96.6123 19.642 96.832 19.767C97.0517 19.892 97.3169 19.9545 97.6275 19.9545C97.8434 19.9545 98.0404 19.9242 98.2184 19.8636C98.4002 19.803 98.5555 19.7159 98.6843 19.6023C98.8131 19.4848 98.9078 19.3447 98.9684 19.1818H101.832C101.734 19.7879 101.501 20.3144 101.133 20.7614C100.766 21.2045 100.279 21.5492 99.6729 21.7955C99.0707 22.0379 98.3661 22.1591 97.5593 22.1591ZM107.316 22.1591C106.369 22.1591 105.559 21.9716 104.885 21.5966C104.21 21.2178 103.693 20.6913 103.333 20.017C102.974 19.339 102.794 18.553 102.794 17.6591C102.794 16.7652 102.974 15.9811 103.333 15.3068C103.693 14.6288 104.21 14.1023 104.885 13.7273C105.559 13.3485 106.369 13.1591 107.316 13.1591C108.172 13.1591 108.913 13.3144 109.538 13.625C110.167 13.9318 110.654 14.3674 110.998 14.9318C111.343 15.4924 111.517 16.1515 111.521 16.9091H108.612C108.57 16.4508 108.438 16.1023 108.214 15.8636C107.994 15.6212 107.71 15.5 107.362 15.5C107.089 15.5 106.85 15.5795 106.646 15.7386C106.441 15.8939 106.282 16.1307 106.169 16.4489C106.055 16.7633 105.998 17.1591 105.998 17.6364C105.998 18.1136 106.055 18.5114 106.169 18.8295C106.282 19.1439 106.441 19.3807 106.646 19.5398C106.85 19.6951 107.089 19.7727 107.362 19.7727C107.593 19.7727 107.797 19.7197 107.975 19.6136C108.154 19.5038 108.297 19.3447 108.407 19.1364C108.521 18.9242 108.589 18.6667 108.612 18.3636H111.521C111.51 19.1326 111.333 19.803 110.993 20.375C110.652 20.9432 110.169 21.3826 109.544 21.6932C108.922 22.0038 108.18 22.1591 107.316 22.1591ZM118.02 13.2727V15.5455H112.27V13.2727H118.02ZM113.383 11.1818H116.52V19.1932C116.52 19.3144 116.54 19.4167 116.582 19.5C116.624 19.5795 116.688 19.6402 116.775 19.6818C116.862 19.7197 116.974 19.7386 117.11 19.7386C117.205 19.7386 117.315 19.7273 117.44 19.7045C117.569 19.6818 117.663 19.6629 117.724 19.6477L118.179 21.8523C118.038 21.8939 117.838 21.9451 117.576 22.0057C117.319 22.0663 117.012 22.1061 116.656 22.125C115.936 22.1629 115.332 22.089 114.843 21.9034C114.355 21.714 113.987 21.4167 113.741 21.0114C113.495 20.6061 113.376 20.0985 113.383 19.4886V11.1818ZM123.41 22.1591C122.463 22.1591 121.653 21.9716 120.978 21.5966C120.304 21.2178 119.787 20.6913 119.427 20.017C119.067 19.339 118.887 18.553 118.887 17.6591C118.887 16.7652 119.067 15.9811 119.427 15.3068C119.787 14.6288 120.304 14.1023 120.978 13.7273C121.653 13.3485 122.463 13.1591 123.41 13.1591C124.357 13.1591 125.168 13.3485 125.842 13.7273C126.516 14.1023 127.033 14.6288 127.393 15.3068C127.753 15.9811 127.933 16.7652 127.933 17.6591C127.933 18.553 127.753 19.339 127.393 20.017C127.033 20.6913 126.516 21.2178 125.842 21.5966C125.168 21.9716 124.357 22.1591 123.41 22.1591ZM123.433 19.8409C123.698 19.8409 123.927 19.7519 124.12 19.5739C124.314 19.3958 124.463 19.142 124.569 18.8125C124.675 18.483 124.728 18.0909 124.728 17.6364C124.728 17.178 124.675 16.786 124.569 16.4602C124.463 16.1307 124.314 15.8769 124.12 15.6989C123.927 15.5208 123.698 15.4318 123.433 15.4318C123.153 15.4318 122.912 15.5208 122.711 15.6989C122.511 15.8769 122.357 16.1307 122.251 16.4602C122.145 16.786 122.092 17.178 122.092 17.6364C122.092 18.0909 122.145 18.483 122.251 18.8125C122.357 19.142 122.511 19.3958 122.711 19.5739C122.912 19.7519 123.153 19.8409 123.433 19.8409ZM129.206 22V13.2727H132.251V14.9318H132.342C132.501 14.3182 132.753 13.8693 133.098 13.5852C133.446 13.3011 133.853 13.1591 134.319 13.1591C134.456 13.1591 134.59 13.1705 134.723 13.1932C134.859 13.2121 134.99 13.2405 135.115 13.2784V15.9545C134.959 15.9015 134.768 15.8617 134.541 15.8352C134.314 15.8087 134.118 15.7955 133.956 15.7955C133.649 15.7955 133.372 15.8655 133.126 16.0057C132.884 16.142 132.692 16.3352 132.552 16.5852C132.412 16.8314 132.342 17.1212 132.342 17.4545V22H129.206Z" fill="#0059FF"/>
</svg>
