<svg width="64" height="42" viewBox="0 0 64 42" fill="none" xmlns="http://www.w3.org/2000/svg">
<path d="M19 8C21.21 8 23 9.79 23 12V31C23 33.21 21.21 35 19 35C16.79 35 15 33.21 15 31V12C15 9.79 16.79 8 19 8ZM19 4C14.58 4 11 7.58 11 12V31C11 35.42 14.58 39 19 39C23.42 39 27 35.42 27 31V12C27 7.58 23.42 4 19 4Z" fill="#09A459"/>
<path d="M32 19H6V41H32V19Z" fill="#93BEFF"/>
<path d="M56 25H20C18.8954 25 18 25.8954 18 27V39C18 40.1046 18.8954 41 20 41H56C57.1046 41 58 40.1046 58 39V27C58 25.8954 57.1046 25 56 25Z" fill="#003CBE"/>
<path d="M41 33C41 31.8954 40.1046 31 39 31C37.8954 31 37 31.8954 37 33C37 34.1046 37.8954 35 39 35C40.1046 35 41 34.1046 41 33Z" fill="white"/>
<path d="M34 33C34 31.8954 33.1046 31 32 31C30.8954 31 30 31.8954 30 33C30 34.1046 30.8954 35 32 35C33.1046 35 34 34.1046 34 33Z" fill="white"/>
<path d="M27 33C27 31.8954 26.1046 31 25 31C23.8954 31 23 31.8954 23 33C23 34.1046 23.8954 35 25 35C26.1046 35 27 34.1046 27 33Z" fill="white"/>
<path d="M53 34H45V35H53V34Z" fill="white"/>
</svg>
