<svg width="64" height="42" viewBox="0 0 64 42" fill="none" xmlns="http://www.w3.org/2000/svg">
<path d="M39 3H25C22.7909 3 21 4.79086 21 7V37C21 39.2091 22.7909 41 25 41H39C41.2091 41 43 39.2091 43 37V7C43 4.79086 41.2091 3 39 3Z" fill="#003CBE"/>
<path d="M36 6H28V7H36V6Z" fill="white"/>
<path d="M27.5 15C28.3284 15 29 15.6716 29 16.5C29 17.3284 28.3284 18 27.5 18C26.6716 18 26 17.3284 26 16.5C26 15.6716 26.6716 15 27.5 15Z" fill="#93BEFF"/>
<path d="M36.5 15C37.3284 15 38 15.6716 38 16.5C38 17.3284 37.3284 18 36.5 18C35.6716 18 35 17.3284 35 16.5C35 15.6716 35.6716 15 36.5 15Z" fill="#93BEFF"/>
<path d="M33.5 16.5C33.5 15.6716 32.8284 15 32 15C31.1716 15 30.5 15.6716 30.5 16.5C30.5 17.3284 31.1716 18 32 18C32.8284 18 33.5 17.3284 33.5 16.5Z" fill="#93BEFF"/>
<path d="M27.5 20C28.3284 20 29 20.6716 29 21.5C29 22.3284 28.3284 23 27.5 23C26.6716 23 26 22.3284 26 21.5C26 20.6716 26.6716 20 27.5 20Z" fill="#93BEFF"/>
<path d="M38 21.5C38 20.6716 37.3284 20 36.5 20C35.6716 20 35 20.6716 35 21.5C35 22.3284 35.6716 23 36.5 23C37.3284 23 38 22.3284 38 21.5Z" fill="#93BEFF"/>
<path d="M32 20C32.8284 20 33.5 20.6716 33.5 21.5C33.5 22.3284 32.8284 23 32 23C31.1716 23 30.5 22.3284 30.5 21.5C30.5 20.6716 31.1716 20 32 20Z" fill="#93BEFF"/>
<path d="M29 26.5C29 25.6716 28.3284 25 27.5 25C26.6716 25 26 25.6716 26 26.5C26 27.3284 26.6716 28 27.5 28C28.3284 28 29 27.3284 29 26.5Z" fill="#93BEFF"/>
<path d="M36.5 25C37.3284 25 38 25.6716 38 26.5C38 27.3284 37.3284 28 36.5 28C35.6716 28 35 27.3284 35 26.5C35 25.6716 35.6716 25 36.5 25Z" fill="#93BEFF"/>
<path d="M33.5 26.5C33.5 25.6716 32.8284 25 32 25C31.1716 25 30.5 25.6716 30.5 26.5C30.5 27.3284 31.1716 28 32 28C32.8284 28 33.5 27.3284 33.5 26.5Z" fill="#93BEFF"/>
<path d="M32 30C32.8284 30 33.5 30.6716 33.5 31.5C33.5 32.3284 32.8284 33 32 33C31.1716 33 30.5 32.3284 30.5 31.5C30.5 30.6716 31.1716 30 32 30Z" fill="white"/>
</svg>
