<svg width="64" height="42" viewBox="0 0 64 42" fill="none" xmlns="http://www.w3.org/2000/svg">
<path d="M45 18C45 16.8954 44.1046 16 43 16H10C8.89543 16 8 16.8954 8 18V39C8 40.1046 8.89543 41 10 41H43C44.1046 41 45 40.1046 45 39V18Z" fill="#003CBE"/>
<path d="M28 30H12V32H28V30Z" fill="white"/>
<path d="M20 35H12V37H20V35Z" fill="white"/>
<path d="M34.54 25.39C32.95 23.35 32 20.79 32 18C32 14.68 33.34 11.68 35.51 9.51C37.68 7.34 40.68 6 44 6C47.32 6 50.32 7.34 52.49 9.51C54.66 11.68 56 14.68 56 18C56 20.79 55.05 23.35 53.46 25.39H34.54Z" fill="#09A459"/>
<path d="M47 15C47 13.3431 45.6569 12 44 12C42.3431 12 41 13.3431 41 15C41 16.6569 42.3431 18 44 18C45.6569 18 47 16.6569 47 15Z" fill="white"/>
<path d="M53.4591 25.39C53.1591 25.78 52.8391 26.14 52.4891 26.49C50.3191 28.66 47.3191 30 43.9991 30C40.1591 30 36.7291 28.19 34.5391 25.39C34.9991 24.6 35.5691 23.87 36.2191 23.22C38.2091 21.23 40.9591 20 43.9991 20C47.0391 20 49.7891 21.23 51.7791 23.22C52.4291 23.87 52.9991 24.6 53.4591 25.39Z" fill="white"/>
</svg>
